<svg version="1" xmlns="http://www.w3.org/2000/svg" width="682.667" height="682.667" viewBox="0 0 512.000000 512.000000"><path d="M252.7 24.6c-.1.1-5.5.5-12 .8-6.5.3-12.1.7-12.5.9-.4.3-3.6.8-7.1 1.1-3.6.4-6.9 1-7.5 1.3-.5.4-2.4.8-4 .9-1.7.1-4.3.7-5.7 1.2-1.5.6-2.9.9-3.1.6-.3-.2-2.1.2-4 1-2 .9-3.8 1.2-4.2.9-.3-.4-.6-.1-.6.6s-.5.9-1 .6c-.6-.4-1.7-.2-2.4.4-.8.7-1.8 1.1-2.2 1-.5-.2-2 .2-3.4.8-1.4.6-5.2 2.1-8.5 3.3-6.5 2.4-25.2 11.4-32.5 15.7-4.9 2.9-22.8 15-24.6 16.7-.7.6-3 2.6-5.2 4.4-2.3 1.8-5.4 4.5-7 6-1.7 1.5-3.8 3.4-4.8 4.3-3.8 3.1-17.5 18.6-22.9 25.9-3.1 4.1-6.2 8.2-6.9 9-2.2 2.8-11.6 18.8-11.6 19.8 0 .6-.3 1.2-.8 1.4-.8.4-9.2 17.4-9.2 18.9 0 .5-.4.9-.8.9s-.8 1-.9 2.2c-.1 1.1-.6 2.4-1 2.7-.4.3-.9 1.3-1 2.1-.1.8-1.3 4.6-2.8 8.5-1.4 3.8-2.6 7.2-2.7 7.5 0 .3-.2.9-.3 1.5-.2.5-.6 2.3-.9 4-.4 1.6-.9 4.1-1.2 5.5-.4 1.4-.7 3.2-.8 4-.1.9-.5 2-.8 2.5-.3.6-.9 3.2-1.2 6-1.3 9.8-1.8 12-2.6 12.9-.5.5-.5 1.9 0 3.1.5 1.3.6 2.6.3 2.9-.7.6-1.4 14.9-1.2 24.1.1 7.9.7 19 .9 19 .3 0 1.3 9.9 1.4 14.2.1 2.2.4 3.9.9 3.6.4-.2.8.8.9 2.4.1 2.7.3 4.2.8 5.3.2.7.7 2.9 1.4 6.9.4 1.9 1.1 4.1 1.5 5 .5.9.7 2.4.6 3.3-.2 1 .1 1.8.6 1.8s.9 1.1.9 2.5.4 2.5.9 2.5c.6 0 .9.8.9 1.7 0 1 .7 3.4 1.5 5.4.9 2 1.3 3.9 1 4.3-.4.3-.1.6.5.6.7 0 1.2.6 1.2 1.3 0 .8.6 2.7 1.4 4.3 1.5 3.1 3.5 7.7 5.7 13.2.8 1.7 1.7 3.2 2.1 3.2.5 0 .8.4.8.9s1.6 3.7 3.5 7.1c1.9 3.4 3.2 6.7 2.8 7.3-.3.7-.3.9.2.5.7-.7 8.1 8.8 7.9 10.1-.1.3.7 1.2 1.7 1.9 1.1.7 1.9 2 1.9 2.8 0 .8.4 1.4.8 1.4.5 0 2.3 1.9 4 4.2 3.8 5.3 6.8 8.7 13.8 16 3.1 3.1 5.3 6.1 5 6.6-.3.6 0 .9.7.8.7 0 4.6 2.8 8.6 6.4 4 3.6 8 6.9 8.9 7.4 2.5 1.3 2.6 1.4 1.4 2.9-.9 1-.8 1.4.3 1.4.8 0 1.2-.4.9-.9-1.1-1.7 1.4-.7 4 1.7 1.4 1.3 2.6 2.2 2.6 1.9 0-.3.8.2 1.8 1.2.9 1 1.7 2.1 1.7 2.5 0 .4.4 1.1.9 1.6s.6.3.2-.4c-1.1-1.9.5-1.6 3.9.8 1.7 1.1 4 2.4 5.3 2.9 1.2.5 2.2 1.4 2.2 2 0 .5.9 1 2 1s2 .4 2 .8c0 .5 1.6 1.4 3.5 2.2 1.9.7 3.2 1.7 2.9 2.2-.3.4.2.5 1 .2.9-.3 1.6-.1 1.6.5s.3 1 .8.9c1.5-.4 9.2 3.9 8.5 4.7-.5.4-.3.5.4.2.6-.4 2.4-.2 4 .5 1.5.6 3.1 1.2 3.6 1.3.4.2 1 .4 1.5.5.4.1 1 .2 1.5.1.4 0 .7.4.7 1 0 .5.4.8.8.5.5-.3 2.1.2 3.6 1 1.6.7 3.6 1.4 4.5 1.4.9 0 2.2.5 2.8 1.1.5.5 2.1 1.1 3.4 1.3 1.4.1 2.9.5 3.4.8 1.5.8 7.8 2.2 9.2 2 .6-.2 1.4.2 1.8.7.3.6 1.2.8 2 .4.8-.3 1.5-.1 1.5.3 0 .5 1.9 1 4.2 1.1 2.3.2 4.5.9 5 1.5.6 1 .8.9.8-.2 0-.9.3-1.1.8-.5.4.5 2.1 1.1 3.7 1.2 1.7 0 5.7.4 9 .7 3.3.3 6.6.5 7.4.6.8 0 1.1.7.7 1.7-.5 1.6-.4 1.6.6.3 1.1-1.2 4-1.5 15.8-1.4 8 0 15.4-.3 16.6-.7 1.1-.4 2.8-.3 3.7.2 1.2.7 1.7.6 1.7-.2 0-.7 1.3-1 3.5-.7 1.9.2 3.5.1 3.5-.3s1.2-.6 2.6-.3c1.6.3 2.3.1 1.9-.6-.4-.7.2-.7 2 0 1.4.5 2.4.6 2.1.1-.6-.9 6.6-2.5 11.6-2.5 1.4-.1 2.4-.5 2.1-1-.4-.5.3-.7 1.5-.4 1.2.3 2.2.2 2.4-.2.2-.5 1.7-1.1 3.3-1.4 1.7-.2 3.1-.5 3.3-.6.1-.2.7-.4 1.2-.5.6-.1 1.1-.3 1.3-.5.1-.1 1-.3 2-.5s2.6-.7 3.5-1.1c.9-.4 2.6-.9 3.6-1.1 1.1-.2 2.5-.8 3.3-1.4.7-.6 1.3-.8 1.3-.5 0 .4 1 .1 2.3-.6 1.2-.7 2.4-1.3 2.7-1.3 2.6-.7 25.4-11.9 27.6-13.6.6-.5 1.4-.6 1.7-.2.4.3.7.1.7-.6 0-.8.6-1.1 1.6-.7.8.3 1.3.2 1-.3-.6-.9 6.3-5.6 7.7-5.3.4.1.7-.3.7-.8 0-.6.5-1 1-1 .6 0 2.3-1.1 3.8-2.5s3.3-2.3 4-2c.7.3 1 .1.7-.5-.3-.5 2-2.8 5.2-5.1 3.2-2.4 6.6-5.1 7.5-6.2 1-1.1 2.2-1.6 2.9-1.1.7.4.9.3.6-.3-.4-.6.5-2.1 1.9-3.4 2.1-2 2.7-2.1 3.5-.9.9 1.2 1 1.1.5-.4-.5-1.4.3-2.9 2.6-5.3 3.1-3.2 5.7-4.5 4.2-2.1-.4.7-.3.8.5.4.6-.4.9-1.2.5-1.7-.8-1.4 1.6-4 3-3.2.6.3.8.3.4-.2-1-1.1 5.1-8.7 6.4-7.9.6.4.8.2.5-.3-.6-1 2.8-6.4 4.5-7.1.5-.2.8-1 .8-1.8 0-1.7 1.2-1.8 3-.2 1.2 1.1 1.2 1 .2-.3-1-1.4-.8-2.4 1.5-5.8 1.4-2.2 3.1-4.1 3.5-4.1.5 0 .7-.3.4-.8-.7-1.1 2.1-4.5 3.2-3.8.6.3.8-.2.5-1.4-.3-1.2 0-2 .6-2 .7 0 1-.4.6-.9-.3-.5.1-1.5.8-2.3.7-.7 3.1-4.9 5.3-9.3 2.1-4.4 4.3-8.3 4.7-8.6.5-.3.9-1 1-1.5.1-.5.5-.8.9-.7.4.2.5-.3.2-1-.2-.7.5-3.5 1.8-6.3 1.2-2.7 2.3-5.4 2.3-5.9.1-.6.3-1.5.4-2 .1-.6.6-.3 1.1.5.8 1.1.9.8.4-1.2-.3-1.6 0-4 1-5.9.9-1.8 1.6-4 1.6-4.9 0-.9.3-2 .7-2.4.4-.3.8-1.2.9-1.9.1-.7 1-4.4 1.9-8.2.9-3.9 1.9-8 2.1-9.3.2-1.2.6-3.4.9-5 .3-1.5.8-4.7 1.2-7.2.3-2.5.6-5 .7-5.5.1-.6.6-1.6 1-2.4.6-1 .5-1.2-.2-.7-.9.5-.9 0-.2-1.8.6-1.8.6-2.6-.1-2.6-.6 0-.7-.5-.2-1.3.9-1.4 1.3-6.8 1.2-18.7 0-8.7-.5-20.5-.9-20.5-.1 0-.3-1.8-.5-4-.4-4.3-.9-8-1.9-13.5-1.2-6.7-1.5-8.5-2.5-12.5-.6-2.2-1-4.1-1.1-4.3 0-.1 0-.3-.1-.5 0-.1-.2-1-.5-2-.6-2.5-1-4-1.6-5.7-.7-1.9-3.3-10.3-3.4-11 0-.3-.5-1.6-1.1-3-1-2.1-2.2-5.2-2.8-7-.5-1.4-2.8-6.9-4.2-9.7-.8-1.8-1.1-3.7-.7-4.4.4-.7.3-.9-.3-.6-.7.4-2.5-2-4.3-5.6-1.8-3.4-4.5-8-5.9-10.2-1.4-2.2-2.5-4.3-2.6-4.6 0-.3-.8-1.7-1.7-3-6-8.2-7.8-11-7.8-12 0-.5-.4-.7-1-.4-.5.3-1 0-1-.8 0-.7-1.3-2.6-3-4.2-1.6-1.6-3-3.2-3-3.7 0-1.5-23.4-24.5-31.5-30.9-4.4-3.5-8.1-6.7-8.3-7.1-.2-.5-.8-.8-1.4-.8-.6 0-2.7-1.4-4.8-3-2.1-1.7-4.3-3-4.9-3-.6 0-1.1-.5-1.1-1 0-.6-.4-1-.8-1-.5 0-4.6-2.3-9.2-5-4.6-2.8-8.9-5-9.7-5-.7 0-1.3-.4-1.3-1 0-.5-.3-.9-.7-.8-.5.1-3.4-1-6.5-2.5s-6-2.7-6.3-2.7c-.4 0-2.1-.6-3.8-1.4-6.9-2.9-11.5-4.6-17.2-6.1-3.3-.9-6.7-1.9-7.5-2.2-1.7-.7-1.6-.7-9-2.2-3-.6-6.6-1.4-8-1.7-1.4-.3-4.7-.7-7.5-1-2.7-.3-5.7-.7-6.5-1-.8-.3-6-.8-11.5-1-5.5-.3-11.9-.6-14.3-.7-2.4-.2-4.4-.2-4.5-.1zM31.5 303.9c-.3.5-.2 1.2.3 1.5.5.3.9-.1.9-.9 0-1.7-.3-1.9-1.2-.6zM459.5 356c-.3.5-.1 1 .4 1 .6 0 1.1-.5 1.1-1 0-.6-.2-1-.4-1-.3 0-.8.4-1.1 1zM79.5 395.9c-.3.5-.2 1.2.3 1.5.5.3.9-.1.9-.9 0-1.7-.3-1.9-1.2-.6zM388.2 434.2c-.7.7-1.2 1.7-1.2 2.2 0 .6.5.3 1.1-.7.6-.9 1.5-1.4 2.1-1.1.7.4.8.2.4-.4-.9-1.5-.9-1.5-2.4 0zM363.1 451.3c-1.3 2.1-1.2 2.1.5.5 1-1 1.6-2 1.3-2.2-.3-.3-1.1.5-1.8 1.7zM357 452c0 .5.5 1 1.1 1 .5 0 .7-.5.4-1-.3-.6-.8-1-1.1-1-.2 0-.4.4-.4 1zM350.6 457.8c-.3.5.1.9.9.9s1.2-.4.9-.9c-.3-.4-.7-.8-.9-.8-.2 0-.6.4-.9.8zM162.2 459.6c1 1 2 1.6 2.2 1.3.3-.3-.5-1.1-1.7-1.8-2.1-1.3-2.1-1.2-.5.5zM180 466c-.8.5-1 1-.5 1 .6 0 1.7-.5 2.5-1s1.1-1 .5-1c-.5 0-1.7.5-2.5 1zM327.5 466.1c-.3.4.2.6 1 .5 2.1-.3 2.8-1.3 1-1.3-.9 0-1.8.4-2 .8zM203.5 473.9c-.3.5-.2 1.2.3 1.5.5.3.9-.1.9-.9 0-1.7-.3-1.9-1.2-.6z"/><path d="M229.5 474.9c-.3.5-.2 1.2.3 1.5.5.3.9-.1.9-.9 0-1.7-.3-1.9-1.2-.6zM273.4 476.4c.1.8.5 1.8.8 2.2.4.3.5-.1.4-1-.1-.8-.5-1.8-.8-2.2-.4-.3-.5.1-.4 1zM245.5 477.9c-.3.5-.2 1.2.3 1.5.5.3.9-.1.9-.9 0-1.7-.3-1.9-1.2-.6zM253.4 478.2c-.4.7-.4 1 .1.6.4-.4 1.5-.2 2.4.5 1.4 1.1 1.4 1 .2-.6-1.6-2-1.8-2.1-2.7-.5z"/></svg>