<?xml version="1.0" standalone="no"?>
<!DOCTYPE svg PUBLIC "-//W3C//DTD SVG 20010904//EN"
 "http://www.w3.org/TR/2001/REC-SVG-20010904/DTD/svg10.dtd">
<svg version="1.0" xmlns="http://www.w3.org/2000/svg"
 width="1024.000000pt" height="1024.000000pt" viewBox="0 0 1024.000000 1024.000000"
 preserveAspectRatio="xMidYMid meet">
<metadata>
Created by potrace 1.14, written by Peter Selinger 2001-2017
</metadata>
<g transform="translate(0.000000,1024.000000) scale(0.100000,-0.100000)"
fill="#000000" stroke="none">
<path d="M1954 10224 c-430 -52 -809 -210 -1139 -477 -116 -94 -298 -286 -386
-407 -214 -295 -339 -595 -406 -975 -16 -94 -18 -298 -21 -3180 -3 -3207 -4
-3182 39 -3403 131 -679 573 -1256 1194 -1557 196 -96 373 -153 610 -198 110
-21 116 -21 3200 -24 2165 -3 3124 -1 3205 7 265 25 509 94 755 214 654 320
1089 913 1212 1651 17 105 18 257 18 3225 0 3305 2 3155 -46 3395 -47 234
-182 557 -317 760 -180 269 -444 520 -719 682 -272 159 -587 261 -907 292 -75
8 -1069 11 -3145 10 -2480 -1 -3056 -4 -3147 -15z m2663 -2200 c19 -9 45 -33
59 -53 l24 -36 0 -355 c0 -337 -1 -357 -20 -388 -59 -97 -201 -95 -257 4 -22
38 -23 45 -23 385 0 344 0 346 23 380 49 73 122 97 194 63z m-1724 -745 c12
-6 124 -113 250 -238 248 -246 258 -262 237 -340 -12 -46 -64 -96 -110 -106
-77 -17 -90 -8 -328 228 -123 122 -231 236 -239 252 -37 69 -7 166 60 199 37
18 99 21 130 5z m3396 -4 c53 -27 81 -71 81 -126 0 -28 -6 -62 -14 -77 -8 -15
-113 -124 -233 -244 -181 -179 -225 -218 -260 -229 -93 -27 -183 39 -183 134
0 26 6 60 14 75 16 30 440 454 471 471 29 15 91 13 124 -4z m-1619 -605 c385
-41 736 -268 932 -603 22 -37 33 -47 54 -47 47 0 227 -41 319 -72 165 -56 343
-157 477 -271 l67 -57 221 0 c242 0 255 -3 303 -60 55 -65 40 -167 -31 -215
-33 -23 -46 -25 -145 -25 -60 0 -107 -3 -105 -7 60 -119 111 -232 129 -285
l22 -68 122 0 c345 0 638 -120 875 -360 297 -298 414 -727 311 -1133 -123
-481 -531 -835 -1031 -897 -55 -6 -601 -10 -1565 -10 -1604 0 -1584 -1 -1744
54 -353 121 -595 443 -617 821 -15 247 75 488 251 674 132 140 251 211 434
261 l64 17 -67 37 c-206 115 -404 338 -502 565 -148 342 -124 764 61 1081 194
332 534 555 910 598 111 13 146 13 255 2z m-1854 -1066 c54 -26 79 -69 79
-136 0 -66 -22 -103 -76 -130 -30 -16 -70 -18 -377 -18 -381 0 -393 2 -431 64
-41 67 -39 123 6 177 48 57 57 58 426 59 293 0 344 -2 373 -16z m507 -1286
c31 -22 55 -62 58 -99 7 -76 9 -73 -228 -312 -126 -126 -240 -235 -255 -243
-35 -18 -101 -18 -138 1 -43 22 -70 74 -70 134 0 52 1 53 82 139 240 252 384
391 418 400 44 13 97 5 133 -20z"/>
</g>
</svg>
