<?xml version="1.0" standalone="no"?>
<!DOCTYPE svg PUBLIC "-//W3C//DTD SVG 20010904//EN"
 "http://www.w3.org/TR/2001/REC-SVG-20010904/DTD/svg10.dtd">
<svg version="1.0" xmlns="http://www.w3.org/2000/svg"
 width="868.000000pt" height="868.000000pt" viewBox="0 0 868.000000 868.000000"
 preserveAspectRatio="xMidYMid meet">
<metadata>
Created by potrace 1.14, written by Peter Selinger 2001-2017
</metadata>
<g transform="translate(0.000000,868.000000) scale(0.100000,-0.100000)"
fill="#000000" stroke="none">
<path d="M2045 8529 c-376 -26 -625 -86 -868 -212 -331 -170 -564 -403 -734
-733 -131 -255 -187 -491 -213 -904 -8 -123 -10 -831 -7 -2390 4 -2422 1
-2293 62 -2595 95 -468 383 -880 797 -1137 204 -127 418 -201 698 -243 264
-39 324 -40 2560 -40 2236 0 2296 1 2560 40 280 42 494 116 698 243 115 72
192 132 301 237 256 246 426 555 496 900 61 300 58 196 62 2374 4 1900 3 1993
-14 1987 -10 -4 -46 -4 -82 0 -50 5 -65 10 -68 25 -3 11 -11 19 -19 19 -29 0
-31 153 -2 172 10 6 10 8 -2 8 -9 0 -11 3 -4 8 5 4 18 28 28 55 10 26 24 47
31 47 7 0 16 12 19 26 4 15 10 24 13 21 7 -8 33 18 33 34 0 7 3 10 6 6 4 -3
13 1 21 9 8 8 19 11 25 8 15 -10 4 315 -17 471 -8 66 -29 176 -46 245 -160
647 -668 1133 -1323 1265 -305 61 -196 59 -2651 61 -1232 1 -2294 -2 -2360 -7z
m1400 -1599 c17 -10 39 -34 50 -52 19 -31 20 -51 20 -318 0 -267 -1 -287 -20
-318 -29 -48 -79 -76 -135 -76 -56 0 -106 28 -135 76 -18 30 -20 54 -23 295
-2 166 1 276 8 302 27 102 143 147 235 91z m-1580 -660 c17 -10 112 -101 211
-202 152 -153 184 -190 193 -226 32 -117 -74 -223 -191 -192 -37 10 -73 42
-240 208 -166 167 -198 203 -208 240 -36 139 112 248 235 172z m3140 0 c56
-35 82 -107 64 -175 -9 -32 -45 -75 -193 -223 -99 -101 -196 -193 -214 -204
-43 -26 -118 -27 -162 -2 -70 42 -95 146 -52 216 11 18 103 115 204 215 193
190 217 207 288 197 19 -3 49 -14 65 -24z m-1525 -600 c237 -29 455 -125 616
-273 l55 -50 -89 -52 c-142 -83 -239 -159 -367 -289 -143 -144 -233 -268 -315
-431 -85 -172 -132 -313 -160 -488 l-13 -77 -94 -46 c-117 -58 -227 -135 -318
-225 -39 -38 -74 -69 -79 -69 -18 0 -148 115 -197 174 -161 191 -246 390 -269
625 -69 688 543 1284 1230 1201z m1565 -466 c97 -7 273 -51 374 -94 307 -127
562 -364 711 -660 24 -47 50 -107 60 -135 l17 -50 124 -7 c317 -16 570 -128
789 -347 231 -231 350 -518 350 -841 0 -319 -119 -608 -345 -835 -190 -192
-435 -311 -705 -345 -55 -6 -570 -10 -1461 -10 -1492 0 -1454 -1 -1618 55
-141 48 -264 128 -377 247 -273 285 -336 713 -159 1073 128 259 372 446 668
509 27 6 27 7 27 89 0 565 394 1104 939 1287 155 52 352 83 476 74 28 -2 86
-6 130 -10z m-3365 -511 c99 -61 99 -205 0 -266 -34 -21 -45 -22 -310 -22
-151 0 -287 3 -302 7 -39 11 -86 63 -98 109 -21 76 28 166 103 188 18 6 154 9
302 8 258 -2 272 -3 305 -24z m525 -1224 c66 -39 89 -143 47 -211 -26 -41
-368 -381 -401 -398 -38 -19 -115 -15 -153 8 -69 43 -93 145 -50 214 11 18
103 115 204 215 127 126 193 184 213 188 17 4 35 8 40 10 19 5 70 -8 100 -26z"/>
</g>
</svg>
