<?xml version="1.0" standalone="no"?>
<!DOCTYPE svg PUBLIC "-//W3C//DTD SVG 20010904//EN"
 "http://www.w3.org/TR/2001/REC-SVG-20010904/DTD/svg10.dtd">
<svg version="1.0" xmlns="http://www.w3.org/2000/svg"
 width="1024.000000pt" height="1024.000000pt" viewBox="0 0 1024.000000 1024.000000"
 preserveAspectRatio="xMidYMid meet">
<metadata>
Created by potrace 1.14, written by Peter Selinger 2001-2017
</metadata>
<g transform="translate(0.000000,1024.000000) scale(0.100000,-0.100000)"
fill="#000000" stroke="none">
<path d="M2029 10236 c-2 -2 -33 -6 -69 -10 -36 -3 -74 -8 -85 -10 -11 -2 -40
-7 -65 -11 -61 -9 -189 -41 -280 -70 -594 -186 -1116 -660 -1350 -1225 -17
-41 -35 -84 -39 -95 -52 -122 -104 -337 -128 -530 -10 -77 -10 -6226 -1 -6320
4 -38 12 -95 17 -125 6 -30 12 -66 15 -80 2 -14 11 -54 20 -90 162 -637 585
-1158 1170 -1445 229 -111 468 -182 721 -213 81 -9 6240 -9 6333 1 40 4 94 12
120 17 26 5 59 12 73 14 46 7 263 67 294 81 45 19 94 37 97 36 2 -1 63 28 135
64 110 54 310 176 360 220 7 5 18 15 25 20 202 155 374 351 546 620 6 11 41
79 76 150 112 227 180 457 213 720 10 75 11 6238 1 6320 -47 410 -203 796
-452 1115 -72 93 -90 113 -201 223 -194 192 -423 343 -699 462 -103 45 -341
115 -441 129 -73 11 -100 16 -130 23 -30 8 -6268 16 -6276 9z"/>
</g>
</svg>
