<svg xmlns="http://www.w3.org/2000/svg" xmlns:xlink="http://www.w3.org/1999/xlink" viewBox="0 0 512 512" xmlns:v="https://vecta.io/nano"><path d="M0 84.988v361.815h223.669c2.445 0 3.769 1.593 4.224 2.279l10.021 11.688 36.18-.003 10.018-11.689c.453-.683 1.776-2.274 4.221-2.274H512V84.988H0z" fill="#ff7226"/><path d="M223.667 51.23H33.758v361.815h189.909c13.492 0 25.381 6.889 32.333 17.339l22.505-180.899L256 68.586c-6.951-10.459-18.834-17.356-32.333-17.356z" fill="#f7ebd4"/><path d="M288.333 51.23c-13.499 0-25.383 6.897-32.333 17.355v361.798c6.951-10.453 18.839-17.339 32.333-17.339h189.909V51.23H288.333z" fill="#d2f0e7"/><g fill="#127c8d"><use xlink:href="#B"/><use xlink:href="#B" y="33.759"/><use xlink:href="#B" y="67.517"/><use xlink:href="#B" y="101.275"/><use xlink:href="#B" y="135.033"/><path d="M144.879 273.472h-66.11a8.44 8.44 0 1 1 0-16.88h66.11a8.44 8.44 0 1 1 0 16.88z"/></g><path d="M78.769 298.794h132.22v69.238H78.769z" fill="#f99fb6"/><g fill="#127c8d"><use xlink:href="#C"/><path d="M433.231 275.199h-132.22a8.44 8.44 0 1 1 0-16.88h132.22a8.44 8.44 0 0 1 8.44 8.44c-.001 4.661-3.778 8.44-8.44 8.44z"/><use xlink:href="#C" y="67.516"/><use xlink:href="#C" y="101.274"/><path d="M367.121 376.474h-66.11a8.44 8.44 0 1 1 0-16.88h66.11a8.44 8.44 0 1 1 0 16.88zm66.11-185.671c-7.143 0-13.385-1.394-18.989-3.883v-78.357c5.604-2.489 11.846-3.883 18.989-3.883a8.44 8.44 0 1 0 0-16.88c-32.447 0-50.952 21.834-66.11 44.479-15.157-22.644-33.663-44.479-66.11-44.479a8.44 8.44 0 1 0 0 16.88c7.143 0 13.385 1.394 18.989 3.883v78.356c-5.604 2.489-11.846 3.883-18.989 3.883a8.44 8.44 0 1 0 0 16.88c32.447 0 50.952-21.834 66.11-44.479 15.157 22.644 33.663 44.479 66.11 44.479a8.44 8.44 0 0 0 8.44-8.44 8.44 8.44 0 0 0-8.44-8.439zm-96.352-16.056v-54.012c7.266 7.417 13.635 16.831 20.207 27.005-6.572 10.176-12.941 19.591-20.207 27.007zm40.277-27.006c6.573-10.175 12.941-19.59 20.207-27.005v54.012c-7.266-7.417-13.635-16.832-20.207-27.007z"/></g><defs ><path id="B" d="M210.989 104.68H78.769a8.44 8.44 0 1 1 0-16.88h132.22a8.44 8.44 0 1 1 0 16.88z"/><path id="C" d="M433.231 241.441h-132.22a8.44 8.44 0 1 1 0-16.88h132.22a8.44 8.44 0 1 1 0 16.88z"/></defs></svg>