<svg xmlns="http://www.w3.org/2000/svg" height="100%" viewBox="0 0 64 64" width="100%" xmlns:v="https://vecta.io/nano"><g transform="matrix(1.965602 0 0 1.965602 0 -.000001)"><circle cx="16.28" cy="16.28" fill="#29abe0" r="16.28"/><path d="M22.258 8.8h1.608c3.101 0 5.614 2.514 5.614 5.614v.33c0 3.101-2.514 5.614-5.614 5.614h-1.608v1.69a2.59 2.59 0 0 1-2.591 2.591H7.431a2.59 2.59 0 0 1-2.591-2.591V10.096c0-.716.58-1.296 1.296-1.296zm0 2.997v5.565h1.466c1.537 0 2.783-1.246 2.783-2.783s-1.246-2.783-2.783-2.783z" fill="#fff"/></g><path d="M25.946 27.669c.787-2.302 2.651-3.453 5.594-3.453 4.414 0 6.05 5.491 3.736 9.081-1.542 2.393-4.653 5.42-9.33 9.081-4.678-3.661-7.788-6.688-9.33-9.081-2.314-3.59-.677-9.081 3.736-9.081 2.943 0 4.807 1.151 5.594 3.453z" fill="#ff5e5b"/></svg>