<?xml version="1.0" encoding="iso-8859-1"?>
<!-- Generator: Adobe Illustrator 19.0.0, SVG Export Plug-In . SVG Version: 6.00 Build 0)  -->
<svg version="1.1" id="Layer_1" xmlns="http://www.w3.org/2000/svg" xmlns:xlink="http://www.w3.org/1999/xlink" x="0px" y="0px"
	 viewBox="0 0 512 512" style="enable-background:new 0 0 512 512;" xml:space="preserve">
<path style="fill:#FF7226;" d="M0,84.988v361.815h223.669c2.445,0,3.769,1.593,4.224,2.279l10.021,11.688l36.18-0.003l10.018-11.689
	c0.453-0.683,1.776-2.274,4.221-2.274H512V84.988H0z"/>
<path style="fill:#F7EBD4;" d="M223.667,51.23H33.758v361.815h189.909c13.492,0,25.381,6.889,32.333,17.339l22.505-180.899
	L256,68.586C249.049,58.127,237.166,51.23,223.667,51.23z"/>
<path style="fill:#D2F0E7;" d="M288.333,51.23c-13.499,0-25.383,6.897-32.333,17.355v361.798
	c6.951-10.453,18.839-17.339,32.333-17.339h189.909V51.23H288.333z"/>
<g>
	<path style="fill:#127C8D;" d="M210.989,104.68H78.769c-4.662,0-8.44-3.779-8.44-8.44s3.778-8.44,8.44-8.44h132.22
		c4.662,0,8.44,3.779,8.44,8.44S215.651,104.68,210.989,104.68z"/>
	<path style="fill:#127C8D;" d="M210.989,138.439H78.769c-4.662,0-8.44-3.779-8.44-8.44c0-4.661,3.778-8.44,8.44-8.44h132.22
		c4.662,0,8.44,3.779,8.44,8.44C219.429,134.66,215.651,138.439,210.989,138.439z"/>
	<path style="fill:#127C8D;" d="M210.989,172.197H78.769c-4.662,0-8.44-3.779-8.44-8.44s3.778-8.44,8.44-8.44h132.22
		c4.662,0,8.44,3.779,8.44,8.44S215.651,172.197,210.989,172.197z"/>
	<path style="fill:#127C8D;" d="M210.989,205.955H78.769c-4.662,0-8.44-3.779-8.44-8.44s3.778-8.44,8.44-8.44h132.22
		c4.662,0,8.44,3.779,8.44,8.44S215.651,205.955,210.989,205.955z"/>
	<path style="fill:#127C8D;" d="M210.989,239.713H78.769c-4.662,0-8.44-3.779-8.44-8.44c0-4.661,3.778-8.44,8.44-8.44h132.22
		c4.662,0,8.44,3.779,8.44,8.44C219.429,235.935,215.651,239.713,210.989,239.713z"/>
	<path style="fill:#127C8D;" d="M144.879,273.472h-66.11c-4.662,0-8.44-3.779-8.44-8.44s3.778-8.44,8.44-8.44h66.11
		c4.662,0,8.44,3.779,8.44,8.44S149.541,273.472,144.879,273.472z"/>
</g>
<rect x="78.769" y="298.794" style="fill:#F99FB6;" width="132.22" height="69.238"/>
<g>
	<path style="fill:#127C8D;" d="M433.231,241.441h-132.22c-4.662,0-8.44-3.779-8.44-8.44s3.778-8.44,8.44-8.44h132.22
		c4.662,0,8.44,3.779,8.44,8.44S437.893,241.441,433.231,241.441z"/>
	<path style="fill:#127C8D;" d="M433.231,275.199h-132.22c-4.662,0-8.44-3.779-8.44-8.44c0-4.661,3.778-8.44,8.44-8.44h132.22
		c4.662,0,8.44,3.779,8.44,8.44C441.67,271.42,437.893,275.199,433.231,275.199z"/>
	<path style="fill:#127C8D;" d="M433.231,308.957h-132.22c-4.662,0-8.44-3.779-8.44-8.44s3.778-8.44,8.44-8.44h132.22
		c4.662,0,8.44,3.779,8.44,8.44S437.893,308.957,433.231,308.957z"/>
	<path style="fill:#127C8D;" d="M433.231,342.715h-132.22c-4.662,0-8.44-3.779-8.44-8.44s3.778-8.44,8.44-8.44h132.22
		c4.662,0,8.44,3.779,8.44,8.44S437.893,342.715,433.231,342.715z"/>
	<path style="fill:#127C8D;" d="M367.121,376.474h-66.11c-4.662,0-8.44-3.779-8.44-8.44s3.778-8.44,8.44-8.44h66.11
		c4.662,0,8.44,3.779,8.44,8.44S371.783,376.474,367.121,376.474z"/>
	<path style="fill:#127C8D;" d="M433.231,190.803c-7.143,0-13.385-1.394-18.989-3.883v-78.357
		c5.604-2.489,11.846-3.883,18.989-3.883c4.662,0,8.44-3.779,8.44-8.44c0-4.661-3.778-8.44-8.44-8.44
		c-32.447,0-50.952,21.834-66.11,44.479c-15.157-22.644-33.663-44.479-66.11-44.479c-4.662,0-8.44,3.779-8.44,8.44
		c0,4.661,3.778,8.44,8.44,8.44c7.143,0,13.385,1.394,18.989,3.883v78.356c-5.604,2.489-11.846,3.883-18.989,3.883
		c-4.662,0-8.44,3.779-8.44,8.44c0,4.661,3.778,8.44,8.44,8.44c32.447,0,50.952-21.834,66.11-44.479
		c15.157,22.644,33.663,44.479,66.11,44.479c4.662,0,8.44-3.779,8.44-8.44C441.67,194.581,437.893,190.803,433.231,190.803z
		 M336.879,174.747v-54.012c7.266,7.417,13.635,16.831,20.207,27.005C350.514,157.916,344.145,167.331,336.879,174.747z
		 M377.156,147.741c6.573-10.175,12.941-19.59,20.207-27.005v54.012C390.097,167.331,383.728,157.916,377.156,147.741z"/>
</g>
<g>
</g>
<g>
</g>
<g>
</g>
<g>
</g>
<g>
</g>
<g>
</g>
<g>
</g>
<g>
</g>
<g>
</g>
<g>
</g>
<g>
</g>
<g>
</g>
<g>
</g>
<g>
</g>
<g>
</g>
</svg>
