<svg xmlns="http://www.w3.org/2000/svg" width="100%" height="100%" viewBox="0 0 64 65" fill-rule="nonzero" stroke-linejoin="round" stroke-miterlimit="2" xmlns:v="https://vecta.io/nano"><path d="M63.035 39.742c-4.274 17.143-21.637 27.576-38.782 23.301C7.115 58.769-3.318 41.405.958 24.263S22.593-3.316 39.733.958s27.576 21.64 23.302 38.784z" fill="#f7931a"/><path d="M46.105 27.442c.637-4.258-2.605-6.547-7.038-8.074l1.438-5.768-3.511-.875-1.4 5.616-2.813-.662 1.41-5.653-3.509-.875-1.439 5.766-2.242-.527.004-.018-4.842-1.209-.934 3.75s2.605.597 2.55.634c1.422.355 1.679 1.296 1.636 2.042l-1.638 6.571a2.91 2.91 0 0 1 .365.117l-.371-.092-2.296 9.205c-.174.432-.615 1.08-1.609.834.035.051-2.552-.637-2.552-.637l-1.743 4.019 4.569 1.139 2.503.646-1.453 5.834 3.507.875 1.439-5.772 2.798.726-1.434 5.745 3.511.875 1.453-5.823c5.987 1.133 10.489.676 12.384-4.739 1.527-4.36-.076-6.875-3.226-8.515 2.294-.529 4.022-2.038 4.483-5.155zm-8.022 11.249c-1.085 4.36-8.426 2.003-10.806 1.412l1.928-7.729c2.38.594 10.012 1.77 8.878 6.317zm1.086-11.312c-.99 3.966-7.1 1.951-9.082 1.457l1.748-7.01c1.982.494 8.365 1.416 7.334 5.553z" fill="#fff"/></svg>